<svg width="177" height="120" viewBox="0 0 177 120" fill="none" xmlns="http://www.w3.org/2000/svg">
<path d="M54.8757 107.549C55.4744 107.374 55.8042 106.792 55.6123 106.248C55.4205 105.703 54.7796 105.404 54.1809 105.578C53.5822 105.752 53.2524 106.335 53.4443 106.879C53.6361 107.423 54.277 107.723 54.8757 107.549Z" fill="url(#paint0_linear_9572_728)" fill-opacity="0.4"/>
<path d="M134.705 104.318C135.304 104.143 135.634 103.561 135.442 103.017C135.25 102.473 134.609 102.173 134.01 102.347C133.412 102.522 133.082 103.104 133.274 103.648C133.466 104.192 134.107 104.492 134.705 104.318Z" fill="url(#paint1_linear_9572_728)" fill-opacity="0.4"/>
<path d="M156.201 5.68131C156.8 5.50692 157.13 4.92443 156.938 4.38029C156.746 3.83615 156.105 3.53641 155.506 3.7108C154.908 3.88519 154.578 4.46767 154.77 5.01181C154.962 5.55595 155.602 5.8557 156.201 5.68131Z" fill="url(#paint2_linear_9572_728)" fill-opacity="0.4"/>
<path d="M103.379 52.0274C103.977 51.853 104.307 51.2705 104.115 50.7264C103.923 50.1822 103.283 49.8825 102.684 50.0569C102.085 50.2313 101.755 50.8138 101.947 51.3579C102.139 51.902 102.78 52.2018 103.379 52.0274Z" fill="url(#paint3_linear_9572_728)" fill-opacity="0.4"/>
<path d="M1.4888 106.944C2.0875 106.77 2.41729 106.187 2.22542 105.643C2.03355 105.099 1.39267 104.799 0.793972 104.973C0.195277 105.148 -0.134517 105.73 0.0573545 106.275C0.249226 106.819 0.890108 107.118 1.4888 106.944Z" fill="url(#paint4_linear_9572_728)" fill-opacity="0.4"/>
<path d="M155.919 48.4389C156.518 48.2645 156.847 47.682 156.656 47.1379C156.464 46.5937 155.823 46.294 155.224 46.4684C154.625 46.6428 154.296 47.2252 154.487 47.7694C154.679 48.3135 155.32 48.6132 155.919 48.4389Z" fill="url(#paint5_linear_9572_728)" fill-opacity="0.4"/>
<path d="M77.086 119.731C79.8248 118.933 81.3336 116.268 80.4558 113.779C79.5781 111.29 76.6462 109.918 73.9074 110.716C71.1686 111.514 69.6599 114.179 70.5376 116.668C71.4154 119.157 74.3472 120.528 77.086 119.731Z" fill="url(#paint6_linear_9572_728)" fill-opacity="0.4"/>
<path d="M170.07 91.1419C172.809 90.3441 174.318 87.6794 173.44 85.1902C172.562 82.7009 169.63 81.3297 166.892 82.1274C164.153 82.9252 162.644 85.5899 163.522 88.0791C164.4 90.5684 167.331 91.9396 170.07 91.1419Z" fill="url(#paint7_linear_9572_728)" fill-opacity="0.4"/>
<path d="M115.077 86.5633C117.069 85.9829 118.167 84.0445 117.528 82.2336C116.89 80.4228 114.757 79.4252 112.765 80.0056C110.772 80.5859 109.675 82.5244 110.313 84.3353C110.952 86.1461 113.085 87.1436 115.077 86.5633Z" fill="url(#paint8_linear_9572_728)" fill-opacity="0.4"/>
<path d="M176.886 57.0929C177.295 58.2541 176.591 59.4928 175.317 59.8639C174.039 60.236 172.676 59.5959 172.268 58.4379C171.859 57.2767 172.563 56.0381 173.837 55.667C175.111 55.2958 176.477 55.9349 176.886 57.0929Z" fill="url(#paint9_linear_9572_728)" fill-opacity="0.4"/>
<path d="M75.1957 2.02026C75.7944 1.84587 76.1242 1.26339 75.9323 0.719252C75.7404 0.175111 75.0996 -0.12463 74.5009 0.0497575C73.9022 0.224145 73.5724 0.806625 73.7642 1.35077C73.9561 1.89491 74.597 2.19464 75.1957 2.02026Z" fill="url(#paint10_linear_9572_728)" fill-opacity="0.5"/>
<path d="M69.7629 31.9446C70.3616 31.7702 70.6914 31.1877 70.4995 30.6436C70.3077 30.0994 69.6668 29.7997 69.0681 29.9741C68.4694 30.1485 68.1396 30.7309 68.3315 31.2751C68.5233 31.8192 69.1642 32.119 69.7629 31.9446Z" fill="url(#paint11_linear_9572_728)" fill-opacity="0.5"/>
<path d="M91.7253 8.37438C92.1348 9.53558 91.4305 10.7743 90.1564 11.1454C88.8823 11.5165 87.5159 10.8774 87.1076 9.71943C86.6982 8.55823 87.4024 7.31956 88.6765 6.94844C89.9506 6.57733 91.317 7.21639 91.7253 8.37438Z" fill="url(#paint12_linear_9572_728)" fill-opacity="0.4"/>
<defs>
<linearGradient id="paint0_linear_9572_728" x1="53.517" y1="106.089" x2="55.4561" y2="107.187" gradientUnits="userSpaceOnUse">
<stop stop-color="#0073FF"/>
<stop offset="0.1156" stop-color="#007EFF"/>
<stop offset="0.3184" stop-color="#009BFF"/>
<stop offset="0.583" stop-color="#00CAFE"/>
<stop offset="0.6531" stop-color="#00D8FE"/>
<stop offset="0.6991" stop-color="#04D9FE"/>
<stop offset="0.743" stop-color="#0FDAFE"/>
<stop offset="0.7861" stop-color="#23DDFE"/>
<stop offset="0.8288" stop-color="#3EE1FE"/>
<stop offset="0.8711" stop-color="#61E7FE"/>
<stop offset="0.9132" stop-color="#8CEDFF"/>
<stop offset="0.955" stop-color="#BEF5FF"/>
<stop offset="0.9958" stop-color="#F8FEFF"/>
<stop offset="1" stop-color="#FEFFFF"/>
</linearGradient>
<linearGradient id="paint1_linear_9572_728" x1="133.347" y1="102.857" x2="135.286" y2="103.955" gradientUnits="userSpaceOnUse">
<stop stop-color="#0073FF"/>
<stop offset="0.1156" stop-color="#007EFF"/>
<stop offset="0.3184" stop-color="#009BFF"/>
<stop offset="0.583" stop-color="#00CAFE"/>
<stop offset="0.6531" stop-color="#00D8FE"/>
<stop offset="0.6991" stop-color="#04D9FE"/>
<stop offset="0.743" stop-color="#0FDAFE"/>
<stop offset="0.7861" stop-color="#23DDFE"/>
<stop offset="0.8288" stop-color="#3EE1FE"/>
<stop offset="0.8711" stop-color="#61E7FE"/>
<stop offset="0.9132" stop-color="#8CEDFF"/>
<stop offset="0.955" stop-color="#BEF5FF"/>
<stop offset="0.9958" stop-color="#F8FEFF"/>
<stop offset="1" stop-color="#FEFFFF"/>
</linearGradient>
<linearGradient id="paint2_linear_9572_728" x1="154.842" y1="4.22128" x2="156.781" y2="5.31923" gradientUnits="userSpaceOnUse">
<stop stop-color="#0073FF"/>
<stop offset="0.1156" stop-color="#007EFF"/>
<stop offset="0.3184" stop-color="#009BFF"/>
<stop offset="0.583" stop-color="#00CAFE"/>
<stop offset="0.6531" stop-color="#00D8FE"/>
<stop offset="0.6991" stop-color="#04D9FE"/>
<stop offset="0.743" stop-color="#0FDAFE"/>
<stop offset="0.7861" stop-color="#23DDFE"/>
<stop offset="0.8288" stop-color="#3EE1FE"/>
<stop offset="0.8711" stop-color="#61E7FE"/>
<stop offset="0.9132" stop-color="#8CEDFF"/>
<stop offset="0.955" stop-color="#BEF5FF"/>
<stop offset="0.9958" stop-color="#F8FEFF"/>
<stop offset="1" stop-color="#FEFFFF"/>
</linearGradient>
<linearGradient id="paint3_linear_9572_728" x1="102.019" y1="50.5693" x2="103.958" y2="51.6672" gradientUnits="userSpaceOnUse">
<stop stop-color="#0073FF"/>
<stop offset="0.1156" stop-color="#007EFF"/>
<stop offset="0.3184" stop-color="#009BFF"/>
<stop offset="0.583" stop-color="#00CAFE"/>
<stop offset="0.6531" stop-color="#00D8FE"/>
<stop offset="0.6991" stop-color="#04D9FE"/>
<stop offset="0.743" stop-color="#0FDAFE"/>
<stop offset="0.7861" stop-color="#23DDFE"/>
<stop offset="0.8288" stop-color="#3EE1FE"/>
<stop offset="0.8711" stop-color="#61E7FE"/>
<stop offset="0.9132" stop-color="#8CEDFF"/>
<stop offset="0.955" stop-color="#BEF5FF"/>
<stop offset="0.9958" stop-color="#F8FEFF"/>
<stop offset="1" stop-color="#FEFFFF"/>
</linearGradient>
<linearGradient id="paint4_linear_9572_728" x1="0.127402" y1="105.486" x2="2.06654" y2="106.584" gradientUnits="userSpaceOnUse">
<stop stop-color="#0073FF"/>
<stop offset="0.1156" stop-color="#007EFF"/>
<stop offset="0.3184" stop-color="#009BFF"/>
<stop offset="0.583" stop-color="#00CAFE"/>
<stop offset="0.6531" stop-color="#00D8FE"/>
<stop offset="0.6991" stop-color="#04D9FE"/>
<stop offset="0.743" stop-color="#0FDAFE"/>
<stop offset="0.7861" stop-color="#23DDFE"/>
<stop offset="0.8288" stop-color="#3EE1FE"/>
<stop offset="0.8711" stop-color="#61E7FE"/>
<stop offset="0.9132" stop-color="#8CEDFF"/>
<stop offset="0.955" stop-color="#BEF5FF"/>
<stop offset="0.9958" stop-color="#F8FEFF"/>
<stop offset="1" stop-color="#FEFFFF"/>
</linearGradient>
<linearGradient id="paint5_linear_9572_728" x1="154.56" y1="46.9816" x2="156.499" y2="48.0795" gradientUnits="userSpaceOnUse">
<stop stop-color="#0073FF"/>
<stop offset="0.1156" stop-color="#007EFF"/>
<stop offset="0.3184" stop-color="#009BFF"/>
<stop offset="0.583" stop-color="#00CAFE"/>
<stop offset="0.6531" stop-color="#00D8FE"/>
<stop offset="0.6991" stop-color="#04D9FE"/>
<stop offset="0.743" stop-color="#0FDAFE"/>
<stop offset="0.7861" stop-color="#23DDFE"/>
<stop offset="0.8288" stop-color="#3EE1FE"/>
<stop offset="0.8711" stop-color="#61E7FE"/>
<stop offset="0.9132" stop-color="#8CEDFF"/>
<stop offset="0.955" stop-color="#BEF5FF"/>
<stop offset="0.9958" stop-color="#F8FEFF"/>
<stop offset="1" stop-color="#FEFFFF"/>
</linearGradient>
<linearGradient id="paint6_linear_9572_728" x1="70.8653" y1="113.058" x2="79.7343" y2="118.08" gradientUnits="userSpaceOnUse">
<stop stop-color="#0073FF"/>
<stop offset="0.1156" stop-color="#007EFF"/>
<stop offset="0.3184" stop-color="#009BFF"/>
<stop offset="0.583" stop-color="#00CAFE"/>
<stop offset="0.6531" stop-color="#00D8FE"/>
<stop offset="0.6991" stop-color="#04D9FE"/>
<stop offset="0.743" stop-color="#0FDAFE"/>
<stop offset="0.7861" stop-color="#23DDFE"/>
<stop offset="0.8288" stop-color="#3EE1FE"/>
<stop offset="0.8711" stop-color="#61E7FE"/>
<stop offset="0.9132" stop-color="#8CEDFF"/>
<stop offset="0.955" stop-color="#BEF5FF"/>
<stop offset="0.9958" stop-color="#F8FEFF"/>
<stop offset="1" stop-color="#FEFFFF"/>
</linearGradient>
<linearGradient id="paint7_linear_9572_728" x1="163.852" y1="84.4692" x2="172.721" y2="89.4907" gradientUnits="userSpaceOnUse">
<stop stop-color="#0073FF"/>
<stop offset="0.1156" stop-color="#007EFF"/>
<stop offset="0.3184" stop-color="#009BFF"/>
<stop offset="0.583" stop-color="#00CAFE"/>
<stop offset="0.6531" stop-color="#00D8FE"/>
<stop offset="0.6991" stop-color="#04D9FE"/>
<stop offset="0.743" stop-color="#0FDAFE"/>
<stop offset="0.7861" stop-color="#23DDFE"/>
<stop offset="0.8288" stop-color="#3EE1FE"/>
<stop offset="0.8711" stop-color="#61E7FE"/>
<stop offset="0.9132" stop-color="#8CEDFF"/>
<stop offset="0.955" stop-color="#BEF5FF"/>
<stop offset="0.9958" stop-color="#F8FEFF"/>
<stop offset="1" stop-color="#FEFFFF"/>
</linearGradient>
<linearGradient id="paint8_linear_9572_728" x1="110.552" y1="81.7103" x2="117.003" y2="85.3625" gradientUnits="userSpaceOnUse">
<stop stop-color="#0073FF"/>
<stop offset="0.1156" stop-color="#007EFF"/>
<stop offset="0.3184" stop-color="#009BFF"/>
<stop offset="0.583" stop-color="#00CAFE"/>
<stop offset="0.6531" stop-color="#00D8FE"/>
<stop offset="0.6991" stop-color="#04D9FE"/>
<stop offset="0.743" stop-color="#0FDAFE"/>
<stop offset="0.7861" stop-color="#23DDFE"/>
<stop offset="0.8288" stop-color="#3EE1FE"/>
<stop offset="0.8711" stop-color="#61E7FE"/>
<stop offset="0.9132" stop-color="#8CEDFF"/>
<stop offset="0.955" stop-color="#BEF5FF"/>
<stop offset="0.9958" stop-color="#F8FEFF"/>
<stop offset="1" stop-color="#FEFFFF"/>
</linearGradient>
<linearGradient id="paint9_linear_9572_728" x1="172.417" y1="56.7579" x2="176.549" y2="59.0977" gradientUnits="userSpaceOnUse">
<stop stop-color="#0073FF"/>
<stop offset="0.1156" stop-color="#007EFF"/>
<stop offset="0.3184" stop-color="#009BFF"/>
<stop offset="0.583" stop-color="#00CAFE"/>
<stop offset="0.6531" stop-color="#00D8FE"/>
<stop offset="0.6991" stop-color="#04D9FE"/>
<stop offset="0.743" stop-color="#0FDAFE"/>
<stop offset="0.7861" stop-color="#23DDFE"/>
<stop offset="0.8288" stop-color="#3EE1FE"/>
<stop offset="0.8711" stop-color="#61E7FE"/>
<stop offset="0.9132" stop-color="#8CEDFF"/>
<stop offset="0.955" stop-color="#BEF5FF"/>
<stop offset="0.9958" stop-color="#F8FEFF"/>
<stop offset="1" stop-color="#FEFFFF"/>
</linearGradient>
<linearGradient id="paint10_linear_9572_728" x1="73.8354" y1="0.560226" x2="75.7745" y2="1.65814" gradientUnits="userSpaceOnUse">
<stop stop-color="#0073FF"/>
<stop offset="0.1156" stop-color="#007EFF"/>
<stop offset="0.3184" stop-color="#009BFF"/>
<stop offset="0.583" stop-color="#00CAFE"/>
<stop offset="0.6531" stop-color="#00D8FE"/>
<stop offset="0.6991" stop-color="#04D9FE"/>
<stop offset="0.743" stop-color="#0FDAFE"/>
<stop offset="0.7861" stop-color="#23DDFE"/>
<stop offset="0.8288" stop-color="#3EE1FE"/>
<stop offset="0.8711" stop-color="#61E7FE"/>
<stop offset="0.9132" stop-color="#8CEDFF"/>
<stop offset="0.955" stop-color="#BEF5FF"/>
<stop offset="0.9958" stop-color="#F8FEFF"/>
<stop offset="1" stop-color="#FEFFFF"/>
</linearGradient>
<linearGradient id="paint11_linear_9572_728" x1="68.4018" y1="30.4852" x2="70.3409" y2="31.5831" gradientUnits="userSpaceOnUse">
<stop stop-color="#0073FF"/>
<stop offset="0.1156" stop-color="#007EFF"/>
<stop offset="0.3184" stop-color="#009BFF"/>
<stop offset="0.583" stop-color="#00CAFE"/>
<stop offset="0.6531" stop-color="#00D8FE"/>
<stop offset="0.6991" stop-color="#04D9FE"/>
<stop offset="0.743" stop-color="#0FDAFE"/>
<stop offset="0.7861" stop-color="#23DDFE"/>
<stop offset="0.8288" stop-color="#3EE1FE"/>
<stop offset="0.8711" stop-color="#61E7FE"/>
<stop offset="0.9132" stop-color="#8CEDFF"/>
<stop offset="0.955" stop-color="#BEF5FF"/>
<stop offset="0.9958" stop-color="#F8FEFF"/>
<stop offset="1" stop-color="#FEFFFF"/>
</linearGradient>
<linearGradient id="paint12_linear_9572_728" x1="87.2559" y1="8.0393" x2="91.3885" y2="10.3792" gradientUnits="userSpaceOnUse">
<stop stop-color="#0073FF"/>
<stop offset="0.1156" stop-color="#007EFF"/>
<stop offset="0.3184" stop-color="#009BFF"/>
<stop offset="0.583" stop-color="#00CAFE"/>
<stop offset="0.6531" stop-color="#00D8FE"/>
<stop offset="0.6991" stop-color="#04D9FE"/>
<stop offset="0.743" stop-color="#0FDAFE"/>
<stop offset="0.7861" stop-color="#23DDFE"/>
<stop offset="0.8288" stop-color="#3EE1FE"/>
<stop offset="0.8711" stop-color="#61E7FE"/>
<stop offset="0.9132" stop-color="#8CEDFF"/>
<stop offset="0.955" stop-color="#BEF5FF"/>
<stop offset="0.9958" stop-color="#F8FEFF"/>
<stop offset="1" stop-color="#FEFFFF"/>
</linearGradient>
</defs>
</svg>
