<svg width="58" height="73" viewBox="0 0 58 73" fill="none" xmlns="http://www.w3.org/2000/svg">
<path d="M57.3762 6.80198C47.1307 5.67958 11.3905 4.56815 9.22984 24.2908C7.06923 44.0134 -0.118059 70.6705 10.1275 71.7929C20.373 72.9153 18.0775 48.4926 36.0404 36.6147C54.0034 24.7369 59.5498 29.8033 57.3762 6.80198Z" fill="#C7E3FF"/>
<path d="M50.3968 2.692C40.0902 2.62286 4.42359 5.17087 4.29049 25.011C4.15739 44.8512 -0.26716 72.1034 10.0394 72.1725C20.346 72.2417 15.5658 48.1816 32.2205 34.5297C48.8751 20.8778 54.9104 25.3506 50.3968 2.692Z" fill="#AED7FF"/>
<path d="M43.86 0.00048769C33.5929 0.903944 -1.67428 6.80527 0.0648755 26.5695C1.80403 46.3337 -0.0299069 73.8818 10.2372 72.9783C20.5044 72.0749 13.4758 48.573 28.7683 33.4109C44.0607 18.2487 50.4911 22.1323 43.86 0.00048769Z" fill="#9DCEFF"/>
</svg>
