<svg width="183" height="136" viewBox="0 0 183 136" fill="none" xmlns="http://www.w3.org/2000/svg">
<g opacity="0.3">
<path d="M85.1195 0.201348H67.9218L59.3254 13.7379L67.9218 27.2745H85.1195L93.7209 13.7379L85.1195 0.201348Z" fill="url(#paint0_linear_9572_846)" stroke="#008BFB" stroke-width="0.4015" stroke-miterlimit="10"/>
<path d="M114.674 15.7042H97.4761L88.8747 29.2408L97.4761 42.7773H114.674L123.275 29.2408L114.674 15.7042Z" fill="url(#paint1_linear_9572_846)" stroke="#008BFB" stroke-width="0.4015" stroke-miterlimit="10"/>
<path d="M85.1195 31.208H67.9218L59.3254 44.7446L67.9218 58.2812H85.1195L93.7209 44.7446L85.1195 31.208Z" fill="url(#paint2_linear_9572_846)" stroke="#008BFB" stroke-width="0.4015" stroke-miterlimit="10"/>
<path d="M114.674 46.7108H97.4761L88.8747 60.2474L97.4761 73.784H114.674L123.275 60.2474L114.674 46.7108Z" fill="url(#paint3_linear_9572_846)" stroke="#008BFB" stroke-width="0.4015" stroke-miterlimit="10"/>
<path d="M85.1195 62.2156H67.9218L59.3254 75.7522L67.9218 89.2888H85.1195L93.7209 75.7522L85.1195 62.2156Z" fill="url(#paint4_linear_9572_846)" stroke="#008BFB" stroke-width="0.4015" stroke-miterlimit="10"/>
<path d="M114.674 77.7195H97.4761L88.8747 91.256L97.4761 104.793H114.674L123.275 91.256L114.674 77.7195Z" fill="url(#paint5_linear_9572_846)" stroke="#008BFB" stroke-width="0.4015" stroke-miterlimit="10"/>
<path d="M114.674 108.726H97.4761L88.8747 122.263L97.4761 135.799H114.674L123.275 122.263L114.674 108.726Z" fill="url(#paint6_linear_9572_846)" stroke="#008BFB" stroke-width="0.4015" stroke-miterlimit="10"/>
<path d="M144.21 0.201348H127.013L118.416 13.7379L127.013 27.2745H144.21L152.812 13.7379L144.21 0.201348Z" fill="url(#paint7_linear_9572_846)" stroke="#008BFB" stroke-width="0.4015" stroke-miterlimit="10"/>
<path d="M173.757 15.7042H156.559L147.958 29.2408L156.559 42.7773H173.757L182.358 29.2408L173.757 15.7042Z" fill="url(#paint8_linear_9572_846)" stroke="#008BFB" stroke-width="0.4015" stroke-miterlimit="10"/>
<path d="M144.21 31.208H127.013L118.416 44.7446L127.013 58.2812H144.21L152.812 44.7446L144.21 31.208Z" fill="url(#paint9_linear_9572_846)" stroke="#008BFB" stroke-width="0.4015" stroke-miterlimit="10"/>
<path d="M144.21 62.2156H127.013L118.416 75.7522L127.013 89.2888H144.21L152.812 75.7522L144.21 62.2156Z" fill="url(#paint10_linear_9572_846)" stroke="#008BFB" stroke-width="0.4015" stroke-miterlimit="10"/>
<path d="M26.0287 31.208H8.83095L0.234581 44.7446L8.83095 58.2812H26.0287L34.63 44.7446L26.0287 31.208Z" fill="url(#paint11_linear_9572_846)" stroke="#008BFB" stroke-width="0.4015" stroke-miterlimit="10"/>
<path d="M55.5752 46.7108H38.3774L29.7761 60.2474L38.3774 73.784H55.5752L64.1765 60.2474L55.5752 46.7108Z" fill="url(#paint12_linear_9572_846)" stroke="#008BFB" stroke-width="0.4015" stroke-miterlimit="10"/>
<path d="M55.5752 77.7195H38.3774L29.7761 91.256L38.3774 104.793H55.5752L64.1765 91.256L55.5752 77.7195Z" fill="url(#paint13_linear_9572_846)" stroke="#008BFB" stroke-width="0.4015" stroke-miterlimit="10"/>
<path d="M26.0287 93.2223H8.83095L0.234581 106.759L8.83095 120.295H26.0287L34.63 106.759L26.0287 93.2223Z" fill="url(#paint14_linear_9572_846)" stroke="#008BFB" stroke-width="0.4015" stroke-miterlimit="10"/>
<path d="M55.5752 108.726H38.3774L29.7761 122.263L38.3774 135.799H55.5752L64.1765 122.263L55.5752 108.726Z" fill="url(#paint15_linear_9572_846)" stroke="#008BFB" stroke-width="0.4015" stroke-miterlimit="10"/>
</g>
<defs>
<linearGradient id="paint0_linear_9572_846" x1="64.7756" y1="3.06143" x2="86.0315" y2="26.4485" gradientUnits="userSpaceOnUse">
<stop stop-color="#008BFB" stop-opacity="0"/>
<stop offset="1" stop-color="#008BFB" stop-opacity="0.4"/>
</linearGradient>
<linearGradient id="paint1_linear_9572_846" x1="94.3272" y1="18.5642" x2="115.583" y2="41.9513" gradientUnits="userSpaceOnUse">
<stop stop-color="#008BFB" stop-opacity="0"/>
<stop offset="1" stop-color="#008BFB" stop-opacity="0.4"/>
</linearGradient>
<linearGradient id="paint2_linear_9572_846" x1="64.7756" y1="34.068" x2="86.0315" y2="57.455" gradientUnits="userSpaceOnUse">
<stop stop-color="#008BFB" stop-opacity="0"/>
<stop offset="1" stop-color="#008BFB" stop-opacity="0.4"/>
</linearGradient>
<linearGradient id="paint3_linear_9572_846" x1="94.3273" y1="49.5708" x2="115.583" y2="72.9579" gradientUnits="userSpaceOnUse">
<stop stop-color="#008BFB" stop-opacity="0"/>
<stop offset="1" stop-color="#008BFB" stop-opacity="0.4"/>
</linearGradient>
<linearGradient id="paint4_linear_9572_846" x1="64.7756" y1="65.0756" x2="86.0315" y2="88.4627" gradientUnits="userSpaceOnUse">
<stop stop-color="#008BFB" stop-opacity="0"/>
<stop offset="1" stop-color="#008BFB" stop-opacity="0.4"/>
</linearGradient>
<linearGradient id="paint5_linear_9572_846" x1="94.3273" y1="80.5794" x2="115.583" y2="103.966" gradientUnits="userSpaceOnUse">
<stop stop-color="#008BFB" stop-opacity="0"/>
<stop offset="1" stop-color="#008BFB" stop-opacity="0.4"/>
</linearGradient>
<linearGradient id="paint6_linear_9572_846" x1="94.3273" y1="111.586" x2="115.583" y2="134.973" gradientUnits="userSpaceOnUse">
<stop stop-color="#008BFB" stop-opacity="0"/>
<stop offset="1" stop-color="#008BFB" stop-opacity="0.4"/>
</linearGradient>
<linearGradient id="paint7_linear_9572_846" x1="123.866" y1="3.06143" x2="145.122" y2="26.4485" gradientUnits="userSpaceOnUse">
<stop stop-color="#008BFB" stop-opacity="0"/>
<stop offset="1" stop-color="#008BFB" stop-opacity="0.4"/>
</linearGradient>
<linearGradient id="paint8_linear_9572_846" x1="153.41" y1="18.5642" x2="174.666" y2="41.9513" gradientUnits="userSpaceOnUse">
<stop stop-color="#008BFB" stop-opacity="0"/>
<stop offset="1" stop-color="#008BFB" stop-opacity="0.4"/>
</linearGradient>
<linearGradient id="paint9_linear_9572_846" x1="123.866" y1="34.068" x2="145.122" y2="57.455" gradientUnits="userSpaceOnUse">
<stop stop-color="#008BFB" stop-opacity="0"/>
<stop offset="1" stop-color="#008BFB" stop-opacity="0.4"/>
</linearGradient>
<linearGradient id="paint10_linear_9572_846" x1="123.866" y1="65.0756" x2="145.122" y2="88.4627" gradientUnits="userSpaceOnUse">
<stop stop-color="#008BFB" stop-opacity="0"/>
<stop offset="1" stop-color="#008BFB" stop-opacity="0.4"/>
</linearGradient>
<linearGradient id="paint11_linear_9572_846" x1="5.68488" y1="34.068" x2="26.9408" y2="57.455" gradientUnits="userSpaceOnUse">
<stop stop-color="#008BFB" stop-opacity="0"/>
<stop offset="1" stop-color="#008BFB" stop-opacity="0.4"/>
</linearGradient>
<linearGradient id="paint12_linear_9572_846" x1="35.2288" y1="49.5708" x2="56.4847" y2="72.9579" gradientUnits="userSpaceOnUse">
<stop stop-color="#008BFB" stop-opacity="0"/>
<stop offset="1" stop-color="#008BFB" stop-opacity="0.4"/>
</linearGradient>
<linearGradient id="paint13_linear_9572_846" x1="35.2288" y1="80.5794" x2="56.4847" y2="103.966" gradientUnits="userSpaceOnUse">
<stop stop-color="#008BFB" stop-opacity="0"/>
<stop offset="1" stop-color="#008BFB" stop-opacity="0.4"/>
</linearGradient>
<linearGradient id="paint14_linear_9572_846" x1="5.68483" y1="96.0822" x2="26.9409" y2="119.469" gradientUnits="userSpaceOnUse">
<stop stop-color="#008BFB" stop-opacity="0"/>
<stop offset="1" stop-color="#008BFB" stop-opacity="0.4"/>
</linearGradient>
<linearGradient id="paint15_linear_9572_846" x1="35.2288" y1="111.586" x2="56.4847" y2="134.973" gradientUnits="userSpaceOnUse">
<stop stop-color="#008BFB" stop-opacity="0"/>
<stop offset="1" stop-color="#008BFB" stop-opacity="0.4"/>
</linearGradient>
</defs>
</svg>
