<svg width="132" height="26" viewBox="0 0 132 26" fill="none" xmlns="http://www.w3.org/2000/svg">
<g clip-path="url(#clip0_9617_1078)">
<path d="M12.3813 14.5377L12.8507 11.4791H9.91581V9.4942C9.91581 8.65741 10.3258 7.84174 11.6402 7.84174H12.9745V5.23761C12.9745 5.23761 11.7637 5.03097 10.606 5.03097C8.18908 5.03097 6.60924 6.49593 6.60924 9.14793V11.4791H3.92258V14.5377H6.60924V21.9319H9.91581V14.5377H12.3813Z" fill="#2E2E2E"/>
</g>
<g clip-path="url(#clip1_9617_1078)">
<path d="M37.3636 19.819H34.2976V9.94577H37.3636V19.819ZM35.8289 8.59898C34.8486 8.59898 34.0534 7.78694 34.0534 6.80655C34.0534 6.33564 34.2404 5.88401 34.5734 5.55102C34.9064 5.21804 35.358 5.03097 35.8289 5.03097C36.2999 5.03097 36.7515 5.21804 37.0845 5.55102C37.4175 5.88401 37.6045 6.33564 37.6045 6.80655C37.6045 7.78694 36.809 8.59898 35.8289 8.59898ZM48.8384 19.819H45.779V15.0127C45.779 13.8673 45.7559 12.3984 44.185 12.3984C42.591 12.3984 42.3467 13.6428 42.3467 14.9302V19.819H39.2841V9.94577H42.2246V11.2926H42.2675C42.6768 10.5168 43.6767 9.6982 45.1684 9.6982C48.2713 9.6982 48.8417 11.7415 48.8417 14.3955V19.819H48.8384Z" fill="#2E2E2E"/>
</g>
<g clip-path="url(#clip2_9617_1078)">
<path d="M81.1636 10.0388C81.1744 10.1889 81.1744 10.3391 81.1744 10.4892C81.1744 15.0683 77.6891 20.3445 71.3191 20.3445C69.3566 20.3445 67.5335 19.7761 66 18.7896C66.2788 18.8217 66.5469 18.8324 66.8365 18.8324C68.4558 18.8324 69.9464 18.2855 71.1368 17.3525C69.614 17.3204 68.3378 16.323 67.8981 14.9504C68.1126 14.9825 68.3271 15.004 68.5523 15.004C68.8633 15.004 69.1743 14.9611 69.4638 14.886C67.8767 14.5643 66.6863 13.1702 66.6863 11.4865V11.4437C67.1474 11.701 67.6837 11.8619 68.252 11.8833C67.319 11.2613 66.7078 10.1997 66.7078 8.99857C66.7078 8.35515 66.8793 7.76533 67.1796 7.25058C68.8847 9.35247 71.4477 10.7251 74.3217 10.8753C74.2681 10.6179 74.2359 10.3498 74.2359 10.0817C74.2359 8.17284 75.7802 6.61788 77.6998 6.61788C78.6971 6.61788 79.5979 7.03612 80.2306 7.71172C81.0134 7.5616 81.7641 7.27204 82.429 6.87526C82.1716 7.67957 81.6247 8.35518 80.9062 8.78411C81.6033 8.70908 82.2789 8.516 82.9009 8.24793C82.4291 8.93424 81.8392 9.54547 81.1636 10.0388Z" fill="#2E2E2E"/>
</g>
<g clip-path="url(#clip3_9617_1078)">
<path d="M107.453 9.6852C105.354 9.6852 103.66 11.3786 103.66 13.478C103.66 15.5774 105.354 17.2708 107.453 17.2708C109.553 17.2708 111.246 15.5774 111.246 13.478C111.246 11.3786 109.553 9.6852 107.453 9.6852ZM107.453 15.9438C106.097 15.9438 104.987 14.838 104.987 13.478C104.987 12.118 106.093 11.0122 107.453 11.0122C108.813 11.0122 109.919 12.118 109.919 13.478C109.919 14.838 108.81 15.9438 107.453 15.9438ZM112.286 9.53006C112.286 10.0219 111.89 10.4147 111.401 10.4147C110.909 10.4147 110.517 10.0186 110.517 9.53006C110.517 9.04152 110.913 8.6454 111.401 8.6454C111.89 8.6454 112.286 9.04152 112.286 9.53006ZM114.798 10.4279C114.742 9.24288 114.471 8.19317 113.603 7.32832C112.738 6.46346 111.688 6.19279 110.503 6.13337C109.282 6.06405 105.621 6.06405 104.4 6.13337C103.218 6.18948 102.168 6.46016 101.3 7.32502C100.432 8.18987 100.165 9.23957 100.105 10.4246C100.036 11.646 100.036 15.3067 100.105 16.5281C100.161 17.7131 100.432 18.7629 101.3 19.6277C102.168 20.4926 103.215 20.7632 104.4 20.8227C105.621 20.892 109.282 20.892 110.503 20.8227C111.688 20.7665 112.738 20.4959 113.603 19.6277C114.468 18.7629 114.739 17.7131 114.798 16.5281C114.867 15.3067 114.867 11.6493 114.798 10.4279ZM113.22 17.8386C112.963 18.4856 112.464 18.984 111.814 19.2448C110.84 19.631 108.529 19.5419 107.453 19.5419C106.377 19.5419 104.063 19.6277 103.093 19.2448C102.446 18.9873 101.947 18.4889 101.687 17.8386C101.3 16.8648 101.389 14.5541 101.389 13.478C101.389 12.4019 101.304 10.0879 101.687 9.11744C101.944 8.47045 102.442 7.972 103.093 7.71123C104.067 7.32502 106.377 7.41414 107.453 7.41414C108.529 7.41414 110.843 7.32832 111.814 7.71123C112.461 7.9687 112.959 8.46715 113.22 9.11744C113.606 10.0912 113.517 12.4019 113.517 13.478C113.517 14.5541 113.606 16.8681 113.22 17.8386Z" fill="#2E2E2E"/>
</g>
<defs>
<clipPath id="clip0_9617_1078">
<rect width="16.7969" height="16.7969" fill="white" transform="translate(0 5.03097) scale(1.00619)"/>
</clipPath>
<clipPath id="clip1_9617_1078">
<rect width="16.7969" height="16.7969" fill="white" transform="translate(33 5.03097) scale(1.00619)"/>
</clipPath>
<clipPath id="clip2_9617_1078">
<rect width="16.7969" height="16.7969" fill="white" transform="translate(66 5.03097) scale(1.00619)"/>
</clipPath>
<clipPath id="clip3_9617_1078">
<rect width="16.7969" height="16.7969" fill="white" transform="translate(99 5.03097) scale(1.00619)"/>
</clipPath>
</defs>
</svg>
