<svg width="14" height="12" viewBox="0 0 14 12" fill="none" xmlns="http://www.w3.org/2000/svg">
<path d="M0.305799 11.5656C0.110824 11.3706 0.0133363 11.1225 0.0133363 10.8211C0.0133363 10.5198 0.110824 10.2717 0.305799 10.0767L4.42687 5.92902L0.305799 1.78137C0.110824 1.58639 0.00908224 1.34249 0.000574224 1.04968C-0.00864279 0.757568 0.0930985 0.505163 0.305799 0.292463C0.500774 0.0974872 0.748925 0 1.05025 0C1.35158 0 1.59973 0.0974872 1.7947 0.292463L6.68681 5.18457C6.79316 5.29092 6.86867 5.40613 6.91333 5.53021C6.95729 5.65428 6.97927 5.78722 6.97927 5.92902C6.97927 6.07082 6.95729 6.20376 6.91333 6.32783C6.86867 6.45191 6.79316 6.56712 6.68681 6.67347L1.7947 11.5656C1.59973 11.7606 1.35583 11.8623 1.06301 11.8708C0.770904 11.88 0.518499 11.7783 0.305799 11.5656ZM7.32491 11.5656C7.12993 11.3706 7.03245 11.1225 7.03245 10.8211C7.03245 10.5198 7.12993 10.2717 7.32491 10.0767L11.446 5.92902L7.32491 1.78137C7.12993 1.58639 7.02784 1.34249 7.01862 1.04968C7.01011 0.757568 7.11221 0.505163 7.32491 0.292463C7.51988 0.0974872 7.76803 0 8.06936 0C8.37069 0 8.61884 0.0974872 8.81381 0.292463L13.7059 5.18457C13.8123 5.29092 13.8874 5.40613 13.9314 5.53021C13.976 5.65428 13.9984 5.78722 13.9984 5.92902C13.9984 6.07082 13.976 6.20376 13.9314 6.32783C13.8874 6.45191 13.8123 6.56712 13.7059 6.67347L8.81381 11.5656C8.61884 11.7606 8.37529 11.8623 8.08318 11.8708C7.79037 11.88 7.53761 11.7783 7.32491 11.5656Z" fill="white"/>
</svg>
