<svg width="183" height="138" viewBox="0 0 183 138" fill="none" xmlns="http://www.w3.org/2000/svg">
<g opacity="0.3">
<path d="M84.4915 1.12311L67.2498 1.39105L58.8867 15.0962L67.7604 28.5335L85.0022 28.2656L93.3703 14.5604L84.4915 1.12311Z" fill="url(#paint0_linear_9572_623)" stroke="#008BFB" stroke-width="0.4015" stroke-miterlimit="10"/>
<path d="M114.416 16.2062L97.1742 16.4742L88.8061 30.1794L97.6848 43.6167L114.927 43.3487L123.295 29.6435L114.416 16.2062Z" fill="url(#paint1_linear_9572_623)" stroke="#008BFB" stroke-width="0.4015" stroke-miterlimit="10"/>
<path d="M85.0796 32.2108L67.8378 32.4787L59.4747 46.1839L68.3484 59.6212L85.5902 59.3533L93.9583 45.648L85.0796 32.2108Z" fill="url(#paint2_linear_9572_623)" stroke="#008BFB" stroke-width="0.4015" stroke-miterlimit="10"/>
<path d="M115.004 47.2929L97.7623 47.5609L89.3942 61.2661L98.2729 74.7033L115.515 74.4354L123.883 60.7301L115.004 47.2929Z" fill="url(#paint3_linear_9572_623)" stroke="#008BFB" stroke-width="0.4015" stroke-miterlimit="10"/>
<path d="M85.6598 63.2965L68.418 63.5644L60.0549 77.2696L68.9286 90.7069L86.1704 90.4389L94.5385 76.7337L85.6598 63.2965Z" fill="url(#paint4_linear_9572_623)" stroke="#008BFB" stroke-width="0.4015" stroke-miterlimit="10"/>
<path d="M115.584 78.3786L98.3425 78.6465L89.9744 92.3518L98.8531 105.789L116.095 105.521L124.463 91.8159L115.584 78.3786Z" fill="url(#paint5_linear_9572_623)" stroke="#008BFB" stroke-width="0.4015" stroke-miterlimit="10"/>
<path d="M116.172 109.465L98.9305 109.733L90.5624 123.438L99.4411 136.876L116.683 136.608L125.051 122.903L116.172 109.465Z" fill="url(#paint6_linear_9572_623)" stroke="#008BFB" stroke-width="0.4015" stroke-miterlimit="10"/>
<path d="M143.742 0.20283L126.501 0.47077L118.138 14.1759L127.011 27.6133L144.253 27.3453L152.621 13.6401L143.742 0.20283Z" fill="url(#paint7_linear_9572_623)" stroke="#008BFB" stroke-width="0.4015" stroke-miterlimit="10"/>
<path d="M173.651 15.286L156.409 15.5539L148.041 29.2591L156.92 42.6964L174.162 42.4284L182.53 28.7232L173.651 15.286Z" fill="url(#paint8_linear_9572_623)" stroke="#008BFB" stroke-width="0.4015" stroke-miterlimit="10"/>
<path d="M144.323 31.2885L127.081 31.5565L118.718 45.2616L127.591 58.699L144.833 58.431L153.201 44.7258L144.323 31.2885Z" fill="url(#paint9_linear_9572_623)" stroke="#008BFB" stroke-width="0.4015" stroke-miterlimit="10"/>
<path d="M144.911 62.3752L127.669 62.6431L119.306 76.3483L128.179 89.7856L145.421 89.5177L153.789 75.8124L144.911 62.3752Z" fill="url(#paint10_linear_9572_623)" stroke="#008BFB" stroke-width="0.4015" stroke-miterlimit="10"/>
<path d="M25.8445 33.1301L8.6027 33.398L0.239625 47.1032L9.11331 60.5405L26.3551 60.2726L34.7232 46.5673L25.8445 33.1301Z" fill="url(#paint11_linear_9572_623)" stroke="#008BFB" stroke-width="0.4015" stroke-miterlimit="10"/>
<path d="M55.7532 48.2122L38.5114 48.4802L30.1434 62.1854L39.0221 75.6226L56.2638 75.3547L64.6319 61.6494L55.7532 48.2122Z" fill="url(#paint12_linear_9572_623)" stroke="#008BFB" stroke-width="0.4015" stroke-miterlimit="10"/>
<path d="M56.3334 79.2999L39.0916 79.5678L30.7236 93.2731L39.6023 106.71L56.844 106.442L65.2121 92.7371L56.3334 79.2999Z" fill="url(#paint13_linear_9572_623)" stroke="#008BFB" stroke-width="0.4015" stroke-miterlimit="10"/>
<path d="M27.0127 95.3044L9.77094 95.5723L1.40786 109.278L10.2816 122.715L27.5233 122.447L35.8914 108.742L27.0127 95.3044Z" fill="url(#paint14_linear_9572_623)" stroke="#008BFB" stroke-width="0.4015" stroke-miterlimit="10"/>
<path d="M56.9215 110.387L39.6797 110.654L31.3116 124.36L40.1903 137.797L57.4321 137.529L65.8002 123.824L56.9215 110.387Z" fill="url(#paint15_linear_9572_623)" stroke="#008BFB" stroke-width="0.4015" stroke-miterlimit="10"/>
</g>
<defs>
<linearGradient id="paint0_linear_9572_623" x1="64.1494" y1="4.30747" x2="85.895" y2="27.4288" gradientUnits="userSpaceOnUse">
<stop stop-color="#008BFB" stop-opacity="0"/>
<stop offset="1" stop-color="#008BFB" stop-opacity="0.4"/>
</linearGradient>
<linearGradient id="paint1_linear_9572_623" x1="94.0712" y1="19.3906" x2="115.817" y2="42.5119" gradientUnits="userSpaceOnUse">
<stop stop-color="#008BFB" stop-opacity="0"/>
<stop offset="1" stop-color="#008BFB" stop-opacity="0.4"/>
</linearGradient>
<linearGradient id="paint2_linear_9572_623" x1="64.7375" y1="35.395" x2="86.483" y2="58.5164" gradientUnits="userSpaceOnUse">
<stop stop-color="#008BFB" stop-opacity="0"/>
<stop offset="1" stop-color="#008BFB" stop-opacity="0.4"/>
</linearGradient>
<linearGradient id="paint3_linear_9572_623" x1="94.6593" y1="50.4772" x2="116.405" y2="73.5985" gradientUnits="userSpaceOnUse">
<stop stop-color="#008BFB" stop-opacity="0"/>
<stop offset="1" stop-color="#008BFB" stop-opacity="0.4"/>
</linearGradient>
<linearGradient id="paint4_linear_9572_623" x1="65.3177" y1="66.4807" x2="87.0632" y2="89.6021" gradientUnits="userSpaceOnUse">
<stop stop-color="#008BFB" stop-opacity="0"/>
<stop offset="1" stop-color="#008BFB" stop-opacity="0.4"/>
</linearGradient>
<linearGradient id="paint5_linear_9572_623" x1="95.2395" y1="81.5629" x2="116.985" y2="104.684" gradientUnits="userSpaceOnUse">
<stop stop-color="#008BFB" stop-opacity="0"/>
<stop offset="1" stop-color="#008BFB" stop-opacity="0.4"/>
</linearGradient>
<linearGradient id="paint6_linear_9572_623" x1="95.8276" y1="112.65" x2="117.573" y2="135.771" gradientUnits="userSpaceOnUse">
<stop stop-color="#008BFB" stop-opacity="0"/>
<stop offset="1" stop-color="#008BFB" stop-opacity="0.4"/>
</linearGradient>
<linearGradient id="paint7_linear_9572_623" x1="123.4" y1="3.38719" x2="145.146" y2="26.5085" gradientUnits="userSpaceOnUse">
<stop stop-color="#008BFB" stop-opacity="0"/>
<stop offset="1" stop-color="#008BFB" stop-opacity="0.4"/>
</linearGradient>
<linearGradient id="paint8_linear_9572_623" x1="153.306" y1="18.4703" x2="175.052" y2="41.5916" gradientUnits="userSpaceOnUse">
<stop stop-color="#008BFB" stop-opacity="0"/>
<stop offset="1" stop-color="#008BFB" stop-opacity="0.4"/>
</linearGradient>
<linearGradient id="paint9_linear_9572_623" x1="123.98" y1="34.4728" x2="145.726" y2="57.5941" gradientUnits="userSpaceOnUse">
<stop stop-color="#008BFB" stop-opacity="0"/>
<stop offset="1" stop-color="#008BFB" stop-opacity="0.4"/>
</linearGradient>
<linearGradient id="paint10_linear_9572_623" x1="124.568" y1="65.5595" x2="146.314" y2="88.6808" gradientUnits="userSpaceOnUse">
<stop stop-color="#008BFB" stop-opacity="0"/>
<stop offset="1" stop-color="#008BFB" stop-opacity="0.4"/>
</linearGradient>
<linearGradient id="paint11_linear_9572_623" x1="5.50251" y1="36.3143" x2="27.2481" y2="59.4357" gradientUnits="userSpaceOnUse">
<stop stop-color="#008BFB" stop-opacity="0"/>
<stop offset="1" stop-color="#008BFB" stop-opacity="0.4"/>
</linearGradient>
<linearGradient id="paint12_linear_9572_623" x1="35.4087" y1="51.3965" x2="57.1542" y2="74.5178" gradientUnits="userSpaceOnUse">
<stop stop-color="#008BFB" stop-opacity="0"/>
<stop offset="1" stop-color="#008BFB" stop-opacity="0.4"/>
</linearGradient>
<linearGradient id="paint13_linear_9572_623" x1="35.9889" y1="82.4842" x2="57.7344" y2="105.606" gradientUnits="userSpaceOnUse">
<stop stop-color="#008BFB" stop-opacity="0"/>
<stop offset="1" stop-color="#008BFB" stop-opacity="0.4"/>
</linearGradient>
<linearGradient id="paint14_linear_9572_623" x1="6.6707" y1="98.4886" x2="28.4164" y2="121.61" gradientUnits="userSpaceOnUse">
<stop stop-color="#008BFB" stop-opacity="0"/>
<stop offset="1" stop-color="#008BFB" stop-opacity="0.4"/>
</linearGradient>
<linearGradient id="paint15_linear_9572_623" x1="36.5769" y1="113.571" x2="58.3224" y2="136.692" gradientUnits="userSpaceOnUse">
<stop stop-color="#008BFB" stop-opacity="0"/>
<stop offset="1" stop-color="#008BFB" stop-opacity="0.4"/>
</linearGradient>
</defs>
</svg>
